<svg xmlns="http://www.w3.org/2000/svg" xmlns:xlink="http://www.w3.org/1999/xlink" version="1.1" id="Layer_1" x="0px" y="0px" viewBox="0 0 72 45" enable-background="new 0 0 72 45" xml:space="preserve"><g id="american_express"><g><g><linearGradient id="SVGID_1_" gradientUnits="userSpaceOnUse" x1="36" y1="-2.4738" x2="36" y2="45.6127"><stop offset="0" style="stop-color:#9DD3F2"/><stop offset="0.5" style="stop-color:#17A4DE"/><stop offset="1" style="stop-color:#2F78BB"/></linearGradient><path fill="url(#SVGID_1_)" d="M72,40.5c0,2.475-2.025,4.5-4.5,4.5h-63C2.025,45,0,42.975,0,40.5v-36C0,2.025,2.025,0,4.5,0h63     C69.975,0,72,2.025,72,4.5V40.5z"/><g opacity="0.5"><path fill="#336698" d="M67.5,0.15c2.399,0,4.35,1.951,4.35,4.35v36c0,2.399-1.951,4.35-4.35,4.35h-63      c-2.399,0-4.35-1.951-4.35-4.35v-36c0-2.399,1.951-4.35,4.35-4.35H67.5 M67.5,0h-63C2.025,0,0,2.025,0,4.5v36      C0,42.975,2.025,45,4.5,45h63c2.475,0,4.5-2.025,4.5-4.5v-36C72,2.025,69.975,0,67.5,0L67.5,0z"/></g></g></g><g><path fill="#2F78BB" d="M13.29,18.071l-1.041-2.571l-1.035,2.571 M36.22,17.047c-0.209,0.129-0.456,0.133-0.752,0.133H33.62    v-1.433h1.873c0.265,0,0.542,0.012,0.721,0.116c0.197,0.094,0.319,0.294,0.319,0.57C36.533,16.715,36.417,16.942,36.22,17.047     M49.4,18.071l-1.052-2.571l-1.046,2.571H49.4z M24.832,20.854h-1.559l-0.006-5.052l-2.205,5.052h-1.335l-2.211-5.056v5.056    h-3.093l-0.584-1.439h-3.166l-0.59,1.439H8.43l2.723-6.45h2.259l2.587,6.107v-6.107h2.482l1.99,4.376l1.828-4.376h2.532V20.854    L24.832,20.854z M31.046,20.854h-5.08v-6.45h5.08v1.343h-3.559v1.162h3.474v1.322h-3.474v1.288h3.559V20.854z M38.209,16.141    c0,1.028-0.677,1.56-1.072,1.719c0.333,0.128,0.617,0.355,0.752,0.543c0.215,0.321,0.252,0.607,0.252,1.183v1.267h-1.534    l-0.006-0.813c0-0.388,0.037-0.946-0.24-1.257c-0.222-0.227-0.561-0.276-1.108-0.276H33.62v2.346H32.1v-6.45h3.498    c0.777,0,1.35,0.021,1.841,0.309C37.92,15.001,38.209,15.421,38.209,16.141 M40.643,20.854h-1.552v-6.45h1.552V20.854z     M58.645,20.854H56.49l-2.883-4.841v4.841H50.51l-0.592-1.439h-3.159l-0.574,1.439h-1.779c-0.739,0-1.675-0.166-2.205-0.714    c-0.534-0.548-0.812-1.289-0.812-2.462c0-0.956,0.166-1.831,0.82-2.522c0.492-0.515,1.261-0.752,2.31-0.752h1.472v1.382h-1.442    c-0.555,0-0.868,0.084-1.17,0.382c-0.259,0.272-0.437,0.785-0.437,1.461c0,0.691,0.135,1.189,0.418,1.515    c0.234,0.255,0.659,0.333,1.06,0.333h0.683l2.144-5.073h2.279l2.575,6.101v-6.101h2.315l2.673,4.492v-4.492h1.558V20.854z     M8.413,22.121h2.598l0.586-1.433h1.312l0.584,1.433h5.112v-1.095l0.457,1.1h2.654l0.456-1.116v1.112h12.706l-0.006-2.352h0.246    c0.172,0.006,0.222,0.022,0.222,0.31v2.042h6.572v-0.548c0.53,0.288,1.354,0.548,2.439,0.548h2.764l0.592-1.433h1.312l0.578,1.433    h5.328V20.76l0.807,1.361H60v-8.996h-4.225v1.062l-0.591-1.062h-4.335v1.062l-0.543-1.062h-5.856c-0.98,0-1.842,0.139-2.538,0.525    v-0.525H37.87v0.525c-0.443-0.398-1.046-0.525-1.718-0.525H21.389l-0.991,2.323l-1.017-2.323h-4.65v1.062l-0.511-1.062h-3.966    l-1.842,4.277L6.3,22.121H8.413z"/><path fill="#FFFFFF" d="M13.29,18.071l-1.041-2.571l-1.035,2.571 M36.22,17.047c-0.209,0.129-0.456,0.133-0.752,0.133H33.62    v-1.433h1.873c0.265,0,0.542,0.012,0.721,0.116c0.197,0.094,0.319,0.294,0.319,0.57C36.533,16.715,36.417,16.942,36.22,17.047     M49.4,18.071l-1.052-2.571l-1.046,2.571H49.4z M24.832,20.854h-1.559l-0.006-5.052l-2.205,5.052h-1.335l-2.211-5.056v5.056    h-3.093l-0.584-1.439h-3.166l-0.59,1.439H8.43l2.723-6.45h2.259l2.587,6.107v-6.107h2.482l1.99,4.376l1.828-4.376h2.532V20.854    L24.832,20.854z M31.046,20.854h-5.08v-6.45h5.08v1.343h-3.559v1.162h3.474v1.322h-3.474v1.288h3.559V20.854z M38.209,16.141    c0,1.028-0.677,1.56-1.072,1.719c0.333,0.128,0.617,0.355,0.752,0.543c0.215,0.321,0.252,0.607,0.252,1.183v1.267h-1.534    l-0.006-0.813c0-0.388,0.037-0.946-0.24-1.257c-0.222-0.227-0.561-0.276-1.108-0.276H33.62v2.346H32.1v-6.45h3.498    c0.777,0,1.35,0.021,1.841,0.309C37.92,15.001,38.209,15.421,38.209,16.141 M40.643,20.854h-1.552v-6.45h1.552V20.854z     M58.645,20.854H56.49l-2.883-4.841v4.841H50.51l-0.592-1.439h-3.159l-0.574,1.439h-1.779c-0.739,0-1.675-0.166-2.205-0.714    c-0.534-0.548-0.812-1.289-0.812-2.462c0-0.956,0.166-1.831,0.82-2.522c0.492-0.515,1.261-0.752,2.31-0.752h1.472v1.382h-1.442    c-0.555,0-0.868,0.084-1.17,0.382c-0.259,0.272-0.437,0.785-0.437,1.461c0,0.691,0.135,1.189,0.418,1.515    c0.234,0.255,0.659,0.333,1.06,0.333h0.683l2.144-5.073h2.279l2.575,6.101v-6.101h2.315l2.673,4.492v-4.492h1.558V20.854z     M8.413,22.121h2.598l0.586-1.433h1.312l0.584,1.433h5.112v-1.095l0.457,1.1h2.654l0.456-1.116v1.112h12.706l-0.006-2.352h0.246    c0.172,0.006,0.222,0.022,0.222,0.31v2.042h6.572v-0.548c0.53,0.288,1.354,0.548,2.439,0.548h2.764l0.592-1.433h1.312l0.578,1.433    h5.328V20.76l0.807,1.361H60v-8.996h-4.225v1.062l-0.591-1.062h-4.335v1.062l-0.543-1.062h-5.856c-0.98,0-1.842,0.139-2.538,0.525    v-0.525H37.87v0.525c-0.443-0.398-1.046-0.525-1.718-0.525H21.389l-0.991,2.323l-1.017-2.323h-4.65v1.062l-0.511-1.062h-3.966    l-1.842,4.277L6.3,22.121H8.413z"/></g><g><path fill="#2F78BB" d="M63.411,28.202v-4.127h-1.053l0,0h-2.758c-0.85,0-1.467,0.206-1.904,0.526v-0.526h-4.165    c-0.666,0-1.448,0.167-1.817,0.526v-0.526h-7.438v0.526c-0.592-0.432-1.591-0.526-2.051-0.526H37.32v0.526    c-0.468-0.459-1.51-0.526-2.145-0.526h-5.491l-1.256,1.377l-1.177-1.377H19.05v8.996h8.047l1.294-1.398l1.22,1.398l4.96,0.004    v-2.116h0.488c0.658,0.01,1.434-0.017,2.119-0.316v2.428h4.091v-2.345h0.198c0.252,0,0.277,0.011,0.277,0.266v2.079h12.429    c0.789,0,1.614-0.205,2.071-0.576v0.576h3.942c0.82,0,1.622-0.117,2.231-0.415v-0.009c0.89-0.574,1.483-1.58,1.483-2.729    C63.9,29.287,63.72,28.699,63.411,28.202z M35.127,29.642h-1.898v2.162h-2.958l-1.873-2.134l-1.947,2.134h-6.027v-6.447h6.119    l1.872,2.113l1.935-2.113h4.862c1.207,0,2.564,0.339,2.564,2.124C37.776,29.272,36.457,29.642,35.127,29.642z M44.283,29.349    c0.215,0.315,0.246,0.609,0.252,1.177v1.278h-1.527v-0.806c0-0.388,0.037-0.962-0.246-1.262c-0.222-0.231-0.561-0.286-1.116-0.286    H40.02v2.354h-1.529v-6.447h3.513c0.77,0,1.331,0.035,1.83,0.305c0.48,0.293,0.782,0.696,0.782,1.431    c0,1.029-0.678,1.554-1.078,1.715C43.876,28.935,44.153,29.162,44.283,29.349z M50.538,26.691h-3.563v1.172h3.476v1.315h-3.476    v1.282l3.563,0.006v1.338H45.46v-6.447h5.078V26.691z M54.413,31.804h-2.963v-1.382h2.952c0.289,0,0.493-0.039,0.621-0.16    c0.105-0.099,0.18-0.244,0.18-0.42c0-0.188-0.081-0.337-0.186-0.426c-0.116-0.099-0.277-0.143-0.542-0.143    c-1.423-0.049-3.205,0.045-3.205-1.995c0-0.935,0.58-1.919,2.175-1.919h3.05v1.372h-2.791c-0.277,0-0.457,0.01-0.61,0.116    c-0.167,0.105-0.228,0.259-0.228,0.464c0,0.243,0.141,0.409,0.333,0.48c0.16,0.057,0.333,0.073,0.592,0.073l0.819,0.023    c0.826,0.021,1.393,0.165,1.737,0.519c0.296,0.31,0.455,0.702,0.455,1.366C56.803,31.157,55.947,31.804,54.413,31.804z     M62.243,31.182c-0.4,0.41-1.047,0.622-1.89,0.622h-2.938v-1.382h2.926c0.29,0,0.494-0.039,0.616-0.16    c0.106-0.099,0.18-0.244,0.18-0.42c0-0.188-0.074-0.337-0.186-0.426c-0.11-0.099-0.271-0.143-0.536-0.143    c-1.428-0.049-3.211,0.045-3.211-1.995c0-0.935,0.586-1.919,2.183-1.919h2.972v1.372h-2.715c-0.277,0-0.461,0.01-0.616,0.116    c-0.16,0.105-0.222,0.26-0.222,0.464c0,0.243,0.135,0.409,0.333,0.48c0.16,0.057,0.333,0.073,0.586,0.073l0.825,0.022    c0.832,0.021,1.388,0.166,1.726,0.519c0.062,0.049,0.099,0.105,0.141,0.159c-0.017-0.022-0.034-0.045-0.052-0.067    c0.264,0.353,0.422,0.792,0.422,1.269C62.787,30.312,62.58,30.808,62.243,31.182z M25.754,26.691l1.664,1.879l-1.738,1.891h-3.741    v-1.282h3.34v-1.315h-3.34v-1.172H25.754z M29.377,28.592l2.336-2.543v5.169L29.377,28.592z M36.143,27.481    c0,0.558-0.364,0.851-0.948,0.851h-1.966v-1.642h1.984C35.762,26.691,36.143,26.918,36.143,27.481z M42.934,27.387    c0,0.276-0.118,0.498-0.315,0.619c-0.204,0.122-0.455,0.133-0.751,0.133H40.02v-1.448h1.873c0.271,0,0.542,0.006,0.726,0.116    C42.816,26.912,42.934,27.111,42.934,27.387z"/><path fill="#FFFFFF" d="M63.411,28.202v-4.127h-1.053l0,0h-2.758c-0.85,0-1.467,0.206-1.904,0.526v-0.526h-4.165    c-0.666,0-1.448,0.167-1.817,0.526v-0.526h-7.438v0.526c-0.592-0.432-1.591-0.526-2.051-0.526H37.32v0.526    c-0.468-0.459-1.51-0.526-2.145-0.526h-5.491l-1.256,1.377l-1.177-1.377H19.05v8.996h8.047l1.294-1.398l1.22,1.398l4.96,0.004    v-2.116h0.488c0.658,0.01,1.434-0.017,2.119-0.316v2.428h4.091v-2.345h0.198c0.252,0,0.277,0.011,0.277,0.266v2.079h12.429    c0.789,0,1.614-0.205,2.071-0.576v0.576h3.942c0.82,0,1.622-0.117,2.231-0.415v-0.009c0.89-0.574,1.483-1.58,1.483-2.729    C63.9,29.287,63.72,28.699,63.411,28.202z M35.127,29.642h-1.898v2.162h-2.958l-1.873-2.134l-1.947,2.134h-6.027v-6.447h6.119    l1.872,2.113l1.935-2.113h4.862c1.207,0,2.564,0.339,2.564,2.124C37.776,29.272,36.457,29.642,35.127,29.642z M44.283,29.349    c0.215,0.315,0.246,0.609,0.252,1.177v1.278h-1.527v-0.806c0-0.388,0.037-0.962-0.246-1.262c-0.222-0.231-0.561-0.286-1.116-0.286    H40.02v2.354h-1.529v-6.447h3.513c0.77,0,1.331,0.035,1.83,0.305c0.48,0.293,0.782,0.696,0.782,1.431    c0,1.029-0.678,1.554-1.078,1.715C43.876,28.935,44.153,29.162,44.283,29.349z M50.538,26.691h-3.563v1.172h3.476v1.315h-3.476    v1.282l3.563,0.006v1.338H45.46v-6.447h5.078V26.691z M54.413,31.804h-2.963v-1.382h2.952c0.289,0,0.493-0.039,0.621-0.16    c0.105-0.099,0.18-0.244,0.18-0.42c0-0.188-0.081-0.337-0.186-0.426c-0.116-0.099-0.277-0.143-0.542-0.143    c-1.423-0.049-3.205,0.045-3.205-1.995c0-0.935,0.58-1.919,2.175-1.919h3.05v1.372h-2.791c-0.277,0-0.457,0.01-0.61,0.116    c-0.167,0.105-0.228,0.259-0.228,0.464c0,0.243,0.141,0.409,0.333,0.48c0.16,0.057,0.333,0.073,0.592,0.073l0.819,0.023    c0.826,0.021,1.393,0.165,1.737,0.519c0.296,0.31,0.455,0.702,0.455,1.366C56.803,31.157,55.947,31.804,54.413,31.804z     M62.243,31.182c-0.4,0.41-1.047,0.622-1.89,0.622h-2.938v-1.382h2.926c0.29,0,0.494-0.039,0.616-0.16    c0.106-0.099,0.18-0.244,0.18-0.42c0-0.188-0.074-0.337-0.186-0.426c-0.11-0.099-0.271-0.143-0.536-0.143    c-1.428-0.049-3.211,0.045-3.211-1.995c0-0.935,0.586-1.919,2.183-1.919h2.972v1.372h-2.715c-0.277,0-0.461,0.01-0.616,0.116    c-0.16,0.105-0.222,0.26-0.222,0.464c0,0.243,0.135,0.409,0.333,0.48c0.16,0.057,0.333,0.073,0.586,0.073l0.825,0.022    c0.832,0.021,1.388,0.166,1.726,0.519c0.062,0.049,0.099,0.105,0.141,0.159c-0.017-0.022-0.034-0.045-0.052-0.067    c0.264,0.353,0.422,0.792,0.422,1.269C62.787,30.312,62.58,30.808,62.243,31.182z M25.754,26.691l1.664,1.879l-1.738,1.891h-3.741    v-1.282h3.34v-1.315h-3.34v-1.172H25.754z M29.377,28.592l2.336-2.543v5.169L29.377,28.592z M36.143,27.481    c0,0.558-0.364,0.851-0.948,0.851h-1.966v-1.642h1.984C35.762,26.691,36.143,26.918,36.143,27.481z M42.934,27.387    c0,0.276-0.118,0.498-0.315,0.619c-0.204,0.122-0.455,0.133-0.751,0.133H40.02v-1.448h1.873c0.271,0,0.542,0.006,0.726,0.116    C42.816,26.912,42.934,27.111,42.934,27.387z"/></g></g></svg>