<svg xmlns="http://www.w3.org/2000/svg" xmlns:xlink="http://www.w3.org/1999/xlink" version="1.1" id="Layer_1" x="0px" y="0px" viewBox="0 0 72 45" enable-background="new 0 0 72 45" xml:space="preserve"><g id="discover"><g><g><linearGradient id="SVGID_1_" gradientUnits="userSpaceOnUse" x1="36" y1="0.15" x2="36" y2="44.5342"><stop offset="0" style="stop-color:#FFFFFF"/><stop offset="1" style="stop-color:#CECECE"/></linearGradient><path fill="url(#SVGID_1_)" d="M72,40.5c0,2.475-2.025,4.5-4.5,4.5h-63C2.025,45,0,42.975,0,40.5v-36C0,2.025,2.025,0,4.5,0h63     C69.975,0,72,2.025,72,4.5V40.5z"/></g><g><linearGradient id="SVGID_2_" gradientUnits="userSpaceOnUse" x1="36" y1="0.15" x2="36" y2="44.5342"><stop offset="0" style="stop-color:#FFFFFF"/><stop offset="1" style="stop-color:#E6E6E6"/></linearGradient><path fill="url(#SVGID_2_)" d="M72,40.5c0,2.475-2.025,4.5-4.5,4.5h-63C2.025,45,0,42.975,0,40.5v-36C0,2.025,2.025,0,4.5,0h63     C69.975,0,72,2.025,72,4.5V40.5z"/><g><path fill="#999999" d="M67.5,0.15c2.399,0,4.35,1.951,4.35,4.35v36c0,2.399-1.951,4.35-4.35,4.35h-63      c-2.399,0-4.35-1.951-4.35-4.35v-36c0-2.399,1.951-4.35,4.35-4.35H67.5 M67.5,0h-63C2.025,0,0,2.025,0,4.5v36      C0,42.975,2.025,45,4.5,45h63c2.475,0,4.5-2.025,4.5-4.5v-36C72,2.025,69.975,0,67.5,0L67.5,0z"/></g></g><g><g><path fill="#CECECE" d="M67.5,0.15c2.399,0,4.35,1.951,4.35,4.35v36c0,2.399-1.951,4.35-4.35,4.35h-63      c-2.399,0-4.35-1.951-4.35-4.35v-36c0-2.399,1.951-4.35,4.35-4.35H67.5 M67.5,0h-63C2.025,0,0,2.025,0,4.5v36      C0,42.975,2.025,45,4.5,45h63c2.475,0,4.5-2.025,4.5-4.5v-36C72,2.025,69.975,0,67.5,0L67.5,0z"/></g></g></g><path fill="#F48120" d="M71.85,21.147c-8.821,8.758-25.409,20.167-51.935,23.703H67.5c2.399,0,4.35-1.951,4.35-4.35V21.147z"/><g><path fill="#231F20" d="M10.634,16.171H8.027v9.105h2.593c1.379,0,2.375-0.325,3.249-1.051c1.039-0.86,1.653-2.155,1.653-3.495    C15.522,18.043,13.514,16.171,10.634,16.171z M12.709,23.011c-0.558,0.504-1.283,0.724-2.431,0.724H9.801v-6.021h0.477    c1.148,0,1.844,0.205,2.431,0.736c0.614,0.547,0.984,1.394,0.984,2.267C13.692,21.591,13.323,22.464,12.709,23.011z"/><rect x="16.339" y="16.171" fill="#231F20" width="1.776" height="9.105"/><path fill="#231F20" d="M22.458,19.665c-1.066-0.394-1.379-0.654-1.379-1.146c0-0.574,0.558-1.009,1.323-1.009    c0.532,0,0.969,0.219,1.432,0.737l0.929-1.217c-0.764-0.668-1.677-1.009-2.676-1.009c-1.611,0-2.84,1.119-2.84,2.609    c0,1.254,0.572,1.897,2.24,2.497c0.695,0.245,1.049,0.409,1.228,0.519c0.355,0.232,0.532,0.56,0.532,0.942    c0,0.738-0.587,1.284-1.379,1.284c-0.847,0-1.529-0.424-1.938-1.214l-1.147,1.105c0.818,1.201,1.801,1.733,3.152,1.733    c1.846,0,3.14-1.227,3.14-2.99C25.077,21.059,24.478,20.404,22.458,19.665z"/><path fill="#231F20" d="M25.637,20.73c0,2.676,2.102,4.752,4.806,4.752c0.765,0,1.419-0.15,2.227-0.531V22.86    c-0.71,0.711-1.339,0.997-2.144,0.997c-1.789,0-3.058-1.297-3.058-3.141c0-1.748,1.31-3.127,2.976-3.127    c0.847,0,1.488,0.302,2.227,1.025v-2.09c-0.78-0.395-1.421-0.559-2.185-0.559C27.794,15.965,25.637,18.083,25.637,20.73z"/><polygon fill="#231F20" points="46.752,22.287 44.324,16.171 42.384,16.171 46.248,25.51 47.204,25.51 51.137,16.171     49.212,16.171   "/><polygon fill="#231F20" points="51.94,25.276 56.977,25.276 56.977,23.735 53.715,23.735 53.715,21.277 56.857,21.277     56.857,19.735 53.715,19.735 53.715,17.714 56.977,17.714 56.977,16.171 51.94,16.171   "/><path fill="#231F20" d="M64.01,18.859c0-1.705-1.174-2.688-3.222-2.688h-2.634v9.105h1.774v-3.658h0.232l2.458,3.658h2.184    l-2.866-3.836C63.273,21.168,64.01,20.253,64.01,18.859z M60.446,20.363h-0.519v-2.758h0.547c1.106,0,1.707,0.463,1.707,1.35    C62.182,19.87,61.581,20.363,60.446,20.363z"/><g><g><linearGradient id="SVGID_3_" gradientUnits="userSpaceOnUse" x1="40.5733" y1="24.6374" x2="37.2194" y2="19.3863"><stop offset="0" style="stop-color:#F89F20"/><stop offset="0.2502" style="stop-color:#F79A20"/><stop offset="0.5331" style="stop-color:#F68D20"/><stop offset="0.6196" style="stop-color:#F58720"/><stop offset="0.7232" style="stop-color:#F48120"/><stop offset="1" style="stop-color:#F37521"/></linearGradient><circle fill="url(#SVGID_3_)" cx="38.094" cy="20.755" r="4.844"/><linearGradient id="SVGID_4_" gradientUnits="userSpaceOnUse" x1="40.0435" y1="24.566" x2="35.1418" y2="14.9853"><stop offset="0" style="stop-color:#F58720;stop-opacity:0"/><stop offset="0.3587" style="stop-color:#E16F27;stop-opacity:0.2704"/><stop offset="0.703" style="stop-color:#D4602C;stop-opacity:0.5299"/><stop offset="0.9816" style="stop-color:#D05B2E;stop-opacity:0.74"/></linearGradient><circle opacity="0.65" fill="url(#SVGID_4_)" cx="38.094" cy="20.755" r="4.844"/></g><g opacity="0.5"><defs><circle id="SVGID_5_" opacity="0.5" cx="38.093" cy="20.757" r="4.844"/></defs><clipPath id="SVGID_6_"><use xlink:href="#SVGID_5_" overflow="visible"/></clipPath><g clip-path="url(#SVGID_6_)"><circle opacity="0" fill="#FFFFFF" cx="39.112" cy="21.952" r="4.844"/></g></g></g></g></g></svg>