<svg xmlns="http://www.w3.org/2000/svg" xmlns:xlink="http://www.w3.org/1999/xlink" version="1.1" id="Layer_1" x="0px" y="0px" viewBox="0 0 72 45" enable-background="new 0 0 72 45" xml:space="preserve"><g id="mastercard"><g><linearGradient id="SVGID_1_" gradientUnits="userSpaceOnUse" x1="36" y1="-1.789979e-06" x2="36" y2="45"><stop offset="0" style="stop-color:#FFFFFF"/><stop offset="1" style="stop-color:#F2DCC4"/></linearGradient><path fill="url(#SVGID_1_)" d="M72,40.5c0,2.475-2.025,4.5-4.5,4.5h-63C2.025,45,0,42.975,0,40.5v-36C0,2.025,2.025,0,4.5,0h63    C69.975,0,72,2.025,72,4.5V40.5z"/><g><path fill="#B2917B" d="M67.5,0.15c2.399,0,4.35,1.951,4.35,4.35v36c0,2.399-1.951,4.35-4.35,4.35h-63     c-2.399,0-4.35-1.951-4.35-4.35v-36c0-2.399,1.951-4.35,4.35-4.35H67.5 M67.5,0h-63C2.025,0,0,2.025,0,4.5v36     C0,42.975,2.025,45,4.5,45h63c2.475,0,4.5-2.025,4.5-4.5v-36C72,2.025,69.975,0,67.5,0L67.5,0z"/></g></g><g><g><g><g><circle fill="#ED1C24" cx="26.964" cy="22.5" r="13.461"/><g><path fill="#FAA61A" d="M45.037,9.039c-3.479,0-6.648,1.32-9.037,3.484c-0.486,0.441-0.94,0.918-1.358,1.425h2.719        c0.371,0.452,0.714,0.928,1.026,1.426h-4.772c-0.285,0.458-0.545,0.933-0.776,1.426h6.323c0.216,0.461,0.406,0.937,0.57,1.425        h-7.463c-0.156,0.464-0.286,0.94-0.391,1.425h8.245c0.197,0.919,0.302,1.872,0.302,2.851c0,1.494-0.243,2.933-0.693,4.276        h-7.463c0.164,0.488,0.354,0.964,0.57,1.426h6.324c-0.231,0.492-0.489,0.967-0.777,1.426h-4.771        c0.311,0.496,0.654,0.973,1.027,1.424h2.719c-0.418,0.508-0.872,0.984-1.36,1.426c2.389,2.165,5.558,3.483,9.037,3.483        c7.434,0,13.461-6.026,13.461-13.461C58.498,15.066,52.471,9.039,45.037,9.039z"/></g></g></g><g><g><path fill="#003375" d="M23.82,23.974c-0.153-0.017-0.221-0.023-0.326-0.023c-0.828,0-1.247,0.284-1.247,0.846       c0,0.346,0.204,0.565,0.524,0.565C23.366,25.362,23.795,24.795,23.82,23.974z M24.884,26.448c-0.195,0-1.211,0-1.211,0       l0.028-0.575c-0.369,0.455-0.862,0.671-1.532,0.671c-0.792,0-1.335-0.618-1.335-1.517c0-1.352,0.944-2.141,2.566-2.141       c0.166,0,0.378,0.015,0.596,0.043c0.045-0.183,0.057-0.261,0.057-0.36c0-0.367-0.254-0.505-0.937-0.505       c-0.715-0.007-1.305,0.171-1.547,0.25c0.015-0.092,0.203-1.249,0.203-1.249c0.728-0.214,1.208-0.294,1.749-0.294       c1.255,0,1.92,0.563,1.919,1.628c0.002,0.286-0.045,0.637-0.118,1.1C25.193,24.304,24.92,26.029,24.884,26.448z"/><polygon fill="#003375" points="20.222,26.448 18.76,26.448 19.598,21.2 17.728,26.448 16.733,26.448 16.609,21.229        15.73,26.448 14.362,26.448 15.504,19.62 17.606,19.62 17.733,23.442 19.015,19.62 21.352,19.62      "/><path fill="#003375" d="M46.842,23.974c-0.153-0.017-0.22-0.023-0.325-0.023c-0.829,0-1.247,0.284-1.247,0.846       c0,0.346,0.204,0.565,0.524,0.565C46.388,25.362,46.817,24.795,46.842,23.974z M47.906,26.448c-0.195,0-1.211,0-1.211,0       l0.027-0.575c-0.369,0.455-0.862,0.671-1.531,0.671c-0.793,0-1.335-0.618-1.335-1.517c0-1.352,0.945-2.141,2.566-2.141       c0.166,0,0.378,0.015,0.595,0.043c0.045-0.183,0.057-0.261,0.057-0.36c0-0.367-0.254-0.505-0.937-0.505       c-0.715-0.007-1.305,0.171-1.548,0.25c0.016-0.092,0.204-1.249,0.204-1.249c0.728-0.214,1.208-0.294,1.748-0.294       c1.256,0,1.92,0.563,1.919,1.628c0.003,0.286-0.044,0.637-0.118,1.1C48.215,24.304,47.942,26.029,47.906,26.448z"/><path fill="#003375" d="M31.378,26.364c-0.4,0.126-0.712,0.18-1.05,0.18c-0.747,0-1.155-0.429-1.155-1.22       c-0.01-0.246,0.107-0.891,0.2-1.48c0.085-0.519,0.634-3.789,0.634-3.789h1.452l-0.169,0.84h0.877L31.97,22.23h-0.881       c-0.169,1.056-0.409,2.371-0.412,2.546c0,0.286,0.153,0.411,0.5,0.411c0.167,0,0.295-0.017,0.394-0.052L31.378,26.364z"/><path fill="#003375" d="M35.832,26.319c-0.499,0.152-0.98,0.227-1.49,0.225c-1.626-0.002-2.474-0.851-2.474-2.477       c0-1.898,1.078-3.296,2.542-3.296c1.197,0,1.963,0.783,1.963,2.009c0,0.408-0.052,0.805-0.179,1.366h-2.893       c-0.098,0.806,0.418,1.141,1.263,1.141c0.519,0,0.989-0.107,1.51-0.349L35.832,26.319z M35.015,23.027       c0.009-0.116,0.154-0.991-0.676-0.991c-0.462,0-0.793,0.353-0.928,0.991H35.015z"/><path fill="#003375" d="M25.76,22.651c0,0.702,0.34,1.186,1.113,1.55c0.592,0.278,0.684,0.361,0.684,0.613       c0,0.346-0.261,0.503-0.839,0.503c-0.436,0-0.842-0.069-1.31-0.22c0,0-0.192,1.224-0.201,1.283       c0.332,0.072,0.628,0.139,1.521,0.164c1.542,0,2.254-0.587,2.254-1.856c0-0.763-0.298-1.211-1.03-1.548       c-0.612-0.281-0.683-0.344-0.683-0.603c0-0.3,0.243-0.453,0.715-0.453c0.287,0,0.679,0.031,1.05,0.083l0.208-1.288       c-0.378-0.06-0.952-0.108-1.286-0.108C26.321,20.771,25.755,21.625,25.76,22.651z"/><path fill="#003375" d="M42.94,20.918c0.406,0,0.785,0.106,1.306,0.369l0.239-1.482c-0.215-0.084-0.968-0.578-1.606-0.578       c-0.978,0-1.805,0.486-2.386,1.286c-0.848-0.281-1.197,0.287-1.625,0.853l-0.38,0.088c0.029-0.186,0.055-0.371,0.047-0.558       h-1.343c-0.183,1.719-0.508,3.46-0.762,5.179l-0.066,0.374h1.462c0.244-1.586,0.377-2.601,0.459-3.288l0.551-0.305       c0.083-0.307,0.339-0.41,0.856-0.397c-0.067,0.362-0.104,0.743-0.104,1.138c0,1.817,0.981,2.948,2.554,2.948       c0.405,0,0.753-0.053,1.292-0.2l0.256-1.556c-0.484,0.238-0.881,0.35-1.241,0.35c-0.85,0-1.364-0.627-1.364-1.664       C41.084,21.971,41.848,20.918,42.94,20.918z"/><path fill="#003375" d="M55.312,19.62l-0.325,1.973c-0.399-0.526-0.828-0.906-1.395-0.906c-0.737,0-1.409,0.559-1.848,1.382       c-0.612-0.127-1.244-0.343-1.244-0.343l0,0.005c0.049-0.46,0.069-0.74,0.064-0.836h-1.342c-0.182,1.719-0.508,3.46-0.762,5.179       l-0.067,0.374h1.463c0.197-1.281,0.348-2.347,0.46-3.191c0.5-0.452,0.75-0.845,1.254-0.819       c-0.224,0.541-0.354,1.163-0.354,1.802c0,1.388,0.702,2.304,1.765,2.304c0.536,0,0.946-0.185,1.347-0.613l-0.069,0.516h1.383       l1.113-6.827H55.312z M53.485,25.166c-0.497,0-0.749-0.369-0.749-1.095c0-1.091,0.471-1.865,1.133-1.865       c0.502,0,0.774,0.382,0.774,1.087C54.643,24.394,54.165,25.166,53.485,25.166z"/></g><g><polygon fill="#FFFFFF" points="20.642,26.043 19.181,26.043 20.019,20.795 18.149,26.043 17.153,26.043 17.03,20.825        16.15,26.043 14.782,26.043 15.925,19.216 18.026,19.216 18.085,23.442 19.503,19.216 21.773,19.216      "/><path fill="#FFFFFF" d="M24.241,23.57c-0.153-0.018-0.221-0.023-0.326-0.023c-0.828,0-1.248,0.284-1.248,0.845       c0,0.345,0.205,0.566,0.524,0.566C23.787,24.958,24.216,24.391,24.241,23.57z M25.304,26.043c-0.195,0-1.211,0-1.211,0       l0.028-0.575c-0.369,0.454-0.862,0.671-1.532,0.671c-0.792,0-1.335-0.619-1.335-1.517c0-1.352,0.944-2.14,2.566-2.14       c0.166,0,0.378,0.015,0.596,0.043c0.045-0.184,0.057-0.262,0.057-0.361c0-0.367-0.254-0.504-0.937-0.504       c-0.715-0.009-1.305,0.17-1.547,0.249c0.015-0.092,0.203-1.249,0.203-1.249c0.728-0.214,1.208-0.294,1.749-0.294       c1.255,0,1.92,0.564,1.918,1.628c0.002,0.285-0.045,0.638-0.118,1.1C25.614,23.898,25.341,25.624,25.304,26.043z"/><path fill="#FFFFFF" d="M44.905,19.4l-0.239,1.482c-0.522-0.262-0.9-0.369-1.305-0.369c-1.091,0-1.856,1.055-1.856,2.558       c0,1.036,0.514,1.662,1.364,1.662c0.36,0,0.757-0.111,1.241-0.35l-0.257,1.556c-0.538,0.147-0.886,0.2-1.291,0.2       c-1.573,0-2.554-1.131-2.554-2.948c0-2.441,1.355-4.147,3.292-4.147C43.937,19.045,44.691,19.315,44.905,19.4z"/><path fill="#FFFFFF" d="M47.263,23.57c-0.152-0.018-0.22-0.023-0.325-0.023c-0.828,0-1.247,0.284-1.247,0.845       c0,0.345,0.204,0.566,0.524,0.566C46.809,24.958,47.238,24.391,47.263,23.57z M48.326,26.043c-0.194,0-1.211,0-1.211,0       l0.027-0.575c-0.369,0.454-0.862,0.671-1.531,0.671c-0.793,0-1.335-0.619-1.335-1.517c0-1.352,0.944-2.14,2.565-2.14       c0.166,0,0.378,0.015,0.595,0.043c0.045-0.184,0.057-0.262,0.057-0.361c0-0.367-0.254-0.504-0.937-0.504       c-0.715-0.009-1.304,0.17-1.547,0.249c0.015-0.092,0.203-1.249,0.203-1.249c0.728-0.214,1.208-0.294,1.749-0.294       c1.255,0,1.92,0.564,1.918,1.628c0.003,0.285-0.044,0.638-0.118,1.1C48.636,23.898,48.364,25.624,48.326,26.043z"/><path fill="#FFFFFF" d="M31.799,25.959c-0.4,0.126-0.712,0.181-1.05,0.181c-0.747,0-1.155-0.43-1.155-1.219       c-0.01-0.246,0.108-0.891,0.201-1.48c0.084-0.519,0.634-3.789,0.634-3.789h1.453l-0.17,0.84h0.746l-0.198,1.334H31.51       c-0.169,1.057-0.409,2.372-0.412,2.546c0,0.287,0.153,0.411,0.501,0.411c0.166,0,0.295-0.016,0.394-0.052L31.799,25.959z"/><path fill="#FFFFFF" d="M36.253,25.915c-0.499,0.153-0.981,0.225-1.491,0.225c-1.626-0.001-2.474-0.851-2.474-2.477       c0-1.899,1.078-3.296,2.542-3.296c1.199,0,1.963,0.782,1.963,2.01c0,0.407-0.053,0.804-0.179,1.365h-2.893       c-0.098,0.806,0.418,1.142,1.262,1.142c0.52,0,0.989-0.108,1.511-0.35L36.253,25.915z M35.437,22.622       c0.008-0.116,0.154-0.991-0.676-0.991c-0.462,0-0.793,0.353-0.928,0.991H35.437z"/><path fill="#FFFFFF" d="M26.18,22.246c0,0.703,0.341,1.186,1.113,1.551c0.592,0.278,0.683,0.361,0.683,0.613       c0,0.346-0.261,0.502-0.839,0.502c-0.436,0-0.842-0.068-1.31-0.219c0,0-0.192,1.224-0.2,1.281       c0.332,0.073,0.628,0.139,1.52,0.165c1.542,0,2.254-0.587,2.254-1.856c0-0.763-0.298-1.211-1.03-1.547       c-0.613-0.282-0.683-0.344-0.683-0.604c0-0.3,0.243-0.455,0.715-0.455c0.286,0,0.679,0.032,1.05,0.084l0.208-1.288       c-0.379-0.06-0.952-0.109-1.286-0.109C26.741,20.366,26.175,21.22,26.18,22.246z"/><path fill="#FFFFFF" d="M56.061,26.043h-1.382l0.069-0.517c-0.401,0.428-0.812,0.613-1.347,0.613       c-1.062,0-1.765-0.915-1.765-2.304c0-1.847,1.089-3.404,2.378-3.404c0.567,0,0.996,0.231,1.396,0.757l0.324-1.973h1.441       L56.061,26.043z M53.905,24.76c0.681,0,1.159-0.771,1.159-1.871c0-0.706-0.272-1.089-0.774-1.089       c-0.663,0-1.133,0.774-1.133,1.866C53.156,24.393,53.408,24.76,53.905,24.76z"/><path fill="#FFFFFF" d="M49.643,20.491c-0.183,1.719-0.508,3.459-0.762,5.179l-0.066,0.374h1.462       c0.523-3.396,0.649-4.058,1.469-3.976c0.13-0.695,0.374-1.304,0.555-1.61c-0.612-0.128-0.954,0.218-1.402,0.876       c0.036-0.284,0.1-0.56,0.088-0.842H49.643z"/><path fill="#FFFFFF" d="M37.613,20.491c-0.184,1.719-0.509,3.459-0.763,5.179l-0.066,0.374h1.462       c0.523-3.396,0.649-4.058,1.468-3.976c0.131-0.695,0.375-1.304,0.556-1.61c-0.612-0.128-0.954,0.218-1.401,0.876       c0.035-0.284,0.1-0.56,0.087-0.842H37.613z"/></g></g></g></g></g></svg>