<svg xmlns="http://www.w3.org/2000/svg" xmlns:xlink="http://www.w3.org/1999/xlink" version="1.1" id="Layer_1" x="0px" y="0px" viewBox="0 0 72 45" enable-background="new 0 0 72 45" xml:space="preserve"><g id="visa"><g><linearGradient id="SVGID_1_" gradientUnits="userSpaceOnUse" x1="36" y1="4.601579e-07" x2="36" y2="45"><stop offset="0" style="stop-color:#FFFFFF"/><stop offset="1" style="stop-color:#BDCCD4"/></linearGradient><path fill="url(#SVGID_1_)" d="M72,40.5c0,2.475-2.025,4.5-4.5,4.5h-63C2.025,45,0,42.975,0,40.5v-36C0,2.025,2.025,0,4.5,0h63    C69.975,0,72,2.025,72,4.5V40.5z"/><g><path fill="#999999" d="M67.5,0.15c2.399,0,4.35,1.951,4.35,4.35v36c0,2.399-1.951,4.35-4.35,4.35h-63     c-2.399,0-4.35-1.951-4.35-4.35v-36c0-2.399,1.951-4.35,4.35-4.35H67.5 M67.5,0h-63C2.025,0,0,2.025,0,4.5v36     C0,42.975,2.025,45,4.5,45h63c2.475,0,4.5-2.025,4.5-4.5v-36C72,2.025,69.975,0,67.5,0L67.5,0z"/></g></g><g><g><polyline fill="#0058A0" points="26.629,30.689 29.15,14.465 33.328,14.465 30.714,30.689 26.693,30.689    "/><path fill="#0058A0" d="M45.867,14.829c-0.826-0.325-2.125-0.679-3.743-0.679c-4.13,0-7.037,2.196-7.061,5.339     c-0.026,2.325,2.075,3.622,3.659,4.395c1.628,0.792,2.175,1.299,2.168,2.008c-0.011,1.084-1.299,1.58-2.5,1.58     c-1.672,0-2.561-0.245-3.935-0.848l-0.537-0.258l-0.584,3.621c0.974,0.451,2.78,0.842,4.654,0.862     c4.389,0,7.241-2.169,7.275-5.526c0.015-1.844-1.098-3.242-3.509-4.396c-1.46-0.75-2.356-1.247-2.345-2.006     c0.001-0.672,0.757-1.392,2.393-1.392c1.366-0.022,2.356,0.293,3.126,0.622l0.375,0.185L45.867,14.829"/><path fill="#0058A0" d="M56.927,14.465h-3.572c-1.001,0-1.751,0.314-2.19,1.369l-6.204,14.854h4.387c0,0,0.716-2.031,0.878-2.469     c0.479,0,4.742,0.027,5.351,0.027c0.125,0.565,0.509,2.442,0.509,2.442h3.877l-3.288-16.223 M51.43,24.789     c0.346-0.737,1.664-4.48,1.664-4.48c-0.024,0.043,0.344-0.916,0.555-1.522l0.282,1.364c0,0,0.802,3.901,0.967,4.638     C54.247,24.789,52.245,24.789,51.43,24.789z"/><path fill="#0058A0" d="M23.125,14.369L18.99,25.437l-0.461-2.223c-0.762-2.583-3.145-5.374-5.798-6.777l3.735,14.154l4.418,0.01     l6.575-16.136h-4.454"/><path fill="#FAA61A" d="M15.148,14.465H8.412l-0.056,0.32c5.242,1.34,8.71,4.567,10.15,8.456l-1.464-7.422     C16.789,14.793,16.055,14.465,15.148,14.465z"/></g></g></g></svg>